<svg clip-rule="evenodd" fill-rule="evenodd" height="512" image-rendering="optimizeQuality" shape-rendering="geometricPrecision" text-rendering="geometricPrecision" viewBox="0 0 512 512" width="512" xmlns="http://www.w3.org/2000/svg" xmlns:xodm="http://www.corel.com/coreldraw/odm/2003"><g id="Layer_x0020_1"><path d="m445.17 512c-.4 0-.8-.04-1.21-.12l-165.83-33.9c-3.24-.66-5.34-3.83-4.68-7.08l16.26-79.54c.32-1.56 1.25-2.93 2.58-3.81 1.32-.88 2.94-1.19 4.5-.87l15.34 3.13c-3.47-27.2 1.05-68.3 11.84-104.3 8.6-28.7 28.43-78.26 64.59-87.69 4.09-1.03 9.1-.33 13.18.74-5.73-17.35-12.81-41.98-17.22-65.29-8.62-45.61-4.85-71.62 11.52-79.52 10.82-5.27 26.42-6.13 34.7 8.79.03.05.06.1.08.15 27.45 52.94 71.61 149.21 58.92 199.12-2.29 8.94-14.86 54.74-38.23 78.42-10.09 10.41-20.08 57.29-14.64 75.08l25.75 5.27c3.25.66 5.34 3.83 4.68 7.07l-16.26 79.55c-.58 2.84-3.08 4.8-5.87 4.8zm-189.17-331.74c-1.39 0-2.79-.49-3.91-1.45-49.17-42.24-100.02-85.92-100.02-130.75 0-26.5 24.65-48.06 54.96-48.06 24.48 0 37.8 9.84 48.97 26.24 11.16-16.4 24.49-26.24 48.97-26.24 30.3 0 54.96 21.56 54.96 48.06 0 44.83-50.85 88.51-100.02 130.75-1.13.96-2.52 1.45-3.91 1.45zm-48.97-168.26c-23.69 0-42.96 16.18-42.96 36.06 0 38.23 46.06 78.86 91.93 118.29 45.86-39.43 91.93-80.05 91.93-118.29 0-19.88-19.27-36.06-42.96-36.06-20.31 0-31.36 7.21-43.79 28.57-1.07 1.84-3.05 2.98-5.18 2.98-2.14 0-4.11-1.14-5.19-2.98-12.43-21.36-23.47-28.57-43.78-28.57zm48.97 110.37c-3.32 0-6-2.68-6-6v-20.24h-20.24c-3.32 0-6-2.69-6-6s2.68-6 6-6h20.24v-20.25c0-3.31 2.68-6 6-6 3.31 0 6 2.69 6 6v20.25h20.24c3.31 0 6 2.69 6 6s-2.68 6-6 6h-20.24v20.24c0 3.32-2.69 6-6 6zm-68.64 270c4.41-25.2.13-66.85-10.83-103.42-13.4-44.73-33.86-73.71-56.12-79.51-2.25-.57-7.94.67-11.13 2.09-5.9 2.62-7.07 5.75-5.71 15.24 4.25 29.93 14.41 66.17 30.17 78.15 2.64 2 3.15 5.77 1.14 8.41-2 2.63-5.77 3.15-8.4 1.14-22.83-17.35-31.94-65.93-34.79-86-.68-4.7-1.72-12.01 1.79-18.48 5.58-14.35 16.32-47.83 22.21-78.96 7.05-37.33 5.25-61.56-4.95-66.48-4.96-2.41-13.98-5.11-18.96 3.75-45.34 87.47-66.44 156.92-57.89 190.55 1.32 5.15 13.49 51.01 35.14 72.95 8.01 8.26 13.98 27.84 16.9 43.43 1.45 7.72 3.96 24.22 1.99 37.47zm-77.1-193.81c4.08-1.07 9.07-1.77 13.13-.74 36.21 9.43 56.03 58.99 64.63 87.69 10.79 36.01 15.31 77.1 11.84 104.3l15.34-3.13c1.56-.32 3.19-.01 4.51.87 1.33.88 2.26 2.25 2.57 3.81l16.26 79.54c.67 3.25-1.43 6.42-4.67 7.08l-165.83 33.9c-.41.08-.81.12-1.21.12-2.79 0-5.29-1.96-5.87-4.8l-16.26-79.54c-.66-3.25 1.43-6.42 4.68-7.08l25.75-5.27c5.44-17.79-4.55-64.67-14.68-75.12-23.34-23.64-35.91-69.44-38.19-78.38-12.69-49.92 31.47-146.18 58.91-199.12.03-.05.06-.1.09-.15 8.28-14.92 23.88-14.06 34.72-8.79 16.35 7.9 20.12 33.91 11.5 79.51-4.41 23.31-11.49 47.95-17.22 65.3zm-29.32 227.81c-.15.04-.31.07-.47.1l-22.81 4.66 13.85 67.79 154.07-31.49-13.85-67.79-17.96 3.67-.23.05zm243.7-34 99.44 20.33c-1.97-13.25.54-29.75 1.99-37.47 2.92-15.59 8.89-35.17 16.86-43.39 21.69-21.98 33.86-67.84 35.18-73 8.55-33.62-12.55-103.07-57.89-190.54-4.98-8.86-14-6.16-18.95-3.76-10.21 4.93-12.01 29.17-4.96 66.5 5.89 31.13 16.64 64.63 22.21 78.97 3.5 6.47 2.46 13.76 1.79 18.46-2.86 20.07-11.96 68.65-34.79 86-2.64 2.01-6.4 1.49-8.41-1.14-2-2.64-1.49-6.41 1.15-8.41 15.76-11.98 25.91-48.22 30.17-78.14 1.36-9.5.18-12.63-5.71-15.25-3.19-1.42-8.88-2.66-11.17-2.08-22.23 5.79-42.68 34.77-56.08 79.5-10.96 36.57-15.24 78.22-10.83 103.42zm106.89 34.1c-.16-.03-.31-.06-.47-.1l-112.57-23.01-.28-.05-17.94-3.67-13.86 67.79 154.08 31.49 13.85-67.79z"/><path d="m256 166.35c45.86-39.43 91.93-80.05 91.93-118.29 0-19.88-19.27-36.06-42.96-36.06-20.31 0-31.36 7.21-43.79 28.57-1.07 1.84-3.05 2.98-5.18 2.98-2.14 0-4.11-1.14-5.19-2.98-12.43-21.36-23.47-28.57-43.78-28.57-23.69 0-42.96 16.18-42.96 36.06 0 38.23 46.06 78.86 91.93 118.29zm0-43.98c-3.32 0-6-2.68-6-6v-20.24h-20.24c-3.32 0-6-2.69-6-6s2.68-6 6-6h20.24v-20.25c0-3.31 2.68-6 6-6 3.31 0 6 2.69 6 6v20.25h20.24c3.31 0 6 2.69 6 6s-2.68 6-6 6h-20.24v20.24c0 3.32-2.69 6-6 6z" fill="#ff4646"/><path d="m176.53 288.95c-13.4-44.73-33.86-73.71-56.12-79.51-2.25-.57-7.94.67-11.13 2.09-5.9 2.62-7.07 5.75-5.71 15.24 4.25 29.93 14.41 66.17 30.17 78.15 2.64 2 3.15 5.77 1.14 8.41-2 2.63-5.77 3.15-8.4 1.14-22.83-17.35-31.94-65.93-34.79-86-.68-4.7-1.72-12.01 1.79-18.48 5.58-14.35 16.32-47.83 22.21-78.96 7.05-37.33 5.25-61.56-4.95-66.48-4.96-2.41-13.98-5.11-18.96 3.75-45.34 87.47-66.44 156.92-57.89 190.55 1.32 5.15 13.49 51.01 35.14 72.95 8.01 8.26 13.98 27.84 16.9 43.43 1.45 7.72 3.96 24.22 1.99 37.47l99.44-20.33c4.41-25.2.13-66.85-10.83-103.42z" fill="#fdd7ad"/><path d="m335.47 288.95c-10.96 36.57-15.24 78.22-10.83 103.42l99.44 20.33c-1.97-13.25.54-29.75 1.99-37.47 2.92-15.59 8.89-35.17 16.86-43.39 21.69-21.98 33.86-67.84 35.18-73 8.55-33.62-12.55-103.07-57.89-190.54-4.98-8.86-14-6.16-18.95-3.76-10.21 4.93-12.01 29.17-4.96 66.5 5.89 31.13 16.64 64.63 22.21 78.97 3.5 6.47 2.46 13.76 1.79 18.46-2.86 20.07-11.96 68.65-34.79 86-2.64 2.01-6.4 1.49-8.41-1.14-2-2.64-1.49-6.41 1.15-8.41 15.76-11.98 25.91-48.22 30.17-78.14 1.36-9.5.18-12.63-5.71-15.25-3.19-1.42-8.88-2.66-11.17-2.08-22.23 5.79-42.68 34.77-56.08 79.5z" fill="#fdd7ad"/><g fill="#9a59de"><path d="m225.58 467.43-13.85-67.79-17.96 3.67-.23.05-112.6 23.01-.47.1-22.81 4.66 13.85 67.79z"/><path d="m300.27 399.64-13.86 67.79 154.08 31.49 13.85-67.79-22.81-4.66-.47-.1-112.57-23.01-.28-.05z"/></g></g></svg>